<svg id="visual" viewBox="0 0 900 600" width="900" height="600" xmlns="http://www.w3.org/2000/svg" xmlns:xlink="http://www.w3.org/1999/xlink" version="1.1"><rect x="0" y="0" width="900" height="600" fill="#001220"></rect><defs><linearGradient id="grad1_0" x1="33.3%" y1="100%" x2="100%" y2="0%"><stop offset="20%" stop-color="#001220" stop-opacity="1"></stop><stop offset="80%" stop-color="#001220" stop-opacity="1"></stop></linearGradient></defs><defs><linearGradient id="grad2_0" x1="0%" y1="100%" x2="66.7%" y2="0%"><stop offset="20%" stop-color="#001220" stop-opacity="1"></stop><stop offset="80%" stop-color="#001220" stop-opacity="1"></stop></linearGradient></defs><g transform="translate(900, 600)"><path d="M-486.7 0C-480.4 -50.2 -474 -100.3 -460.3 -149.6C-446.6 -198.8 -425.5 -247.2 -393.8 -286.1C-362.1 -325 -319.7 -354.5 -277.4 -381.9C-235.2 -409.3 -193 -434.6 -146.8 -451.8C-100.6 -468.9 -50.3 -477.8 0 -486.7L0 0Z" fill="#b62dbb"></path></g><g transform="translate(0, 0)"><path d="M486.7 0C463.9 44.8 441 89.6 429.9 139.7C418.8 189.8 419.5 245.1 393.8 286.1C368.1 327.1 316.1 353.6 268 368.9C220 384.2 176 388.3 132 406.1C87.9 423.9 44 455.3 0 486.7L0 0Z" fill="#b62dbb"></path></g></svg>