<svg id="visual" viewBox="0 0 900 600" width="900" height="600" xmlns="http://www.w3.org/2000/svg" xmlns:xlink="http://www.w3.org/1999/xlink" version="1.1"><rect x="0" y="0" width="900" height="600" fill="#ffffff"></rect><path d="M0 352L21.5 355.5C43 359 86 366 128.8 370.7C171.7 375.3 214.3 377.7 257.2 384.2C300 390.7 343 401.3 385.8 405C428.7 408.7 471.3 405.3 514.2 396C557 386.7 600 371.3 642.8 366.7C685.7 362 728.3 368 771.2 377.5C814 387 857 400 878.5 406.5L900 413L900 601L878.5 601C857 601 814 601 771.2 601C728.3 601 685.7 601 642.8 601C600 601 557 601 514.2 601C471.3 601 428.7 601 385.8 601C343 601 300 601 257.2 601C214.3 601 171.7 601 128.8 601C86 601 43 601 21.5 601L0 601Z" fill="#fa7268"></path><path d="M0 467L21.5 464C43 461 86 455 128.8 454.2C171.7 453.3 214.3 457.7 257.2 459C300 460.3 343 458.7 385.8 459C428.7 459.3 471.3 461.7 514.2 458.2C557 454.7 600 445.3 642.8 445.7C685.7 446 728.3 456 771.2 449.8C814 443.7 857 421.3 878.5 410.2L900 399L900 601L878.5 601C857 601 814 601 771.2 601C728.3 601 685.7 601 642.8 601C600 601 557 601 514.2 601C471.3 601 428.7 601 385.8 601C343 601 300 601 257.2 601C214.3 601 171.7 601 128.8 601C86 601 43 601 21.5 601L0 601Z" fill="#ef5f67"></path><path d="M0 469L21.5 465.8C43 462.7 86 456.3 128.8 452.2C171.7 448 214.3 446 257.2 449.2C300 452.3 343 460.7 385.8 466.3C428.7 472 471.3 475 514.2 471C557 467 600 456 642.8 455.8C685.7 455.7 728.3 466.3 771.2 470.3C814 474.3 857 471.7 878.5 470.3L900 469L900 601L878.5 601C857 601 814 601 771.2 601C728.3 601 685.7 601 642.8 601C600 601 557 601 514.2 601C471.3 601 428.7 601 385.8 601C343 601 300 601 257.2 601C214.3 601 171.7 601 128.8 601C86 601 43 601 21.5 601L0 601Z" fill="#e34c67"></path><path d="M0 523L21.5 525.3C43 527.7 86 532.3 128.8 528C171.7 523.7 214.3 510.3 257.2 503.2C300 496 343 495 385.8 500.2C428.7 505.3 471.3 516.7 514.2 516.5C557 516.3 600 504.7 642.8 500.2C685.7 495.7 728.3 498.3 771.2 506.3C814 514.3 857 527.7 878.5 534.3L900 541L900 601L878.5 601C857 601 814 601 771.2 601C728.3 601 685.7 601 642.8 601C600 601 557 601 514.2 601C471.3 601 428.7 601 385.8 601C343 601 300 601 257.2 601C214.3 601 171.7 601 128.8 601C86 601 43 601 21.5 601L0 601Z" fill="#d53867"></path><path d="M0 563L21.5 560.2C43 557.3 86 551.7 128.8 547C171.7 542.3 214.3 538.7 257.2 537C300 535.3 343 535.7 385.8 541C428.7 546.3 471.3 556.7 514.2 558.7C557 560.7 600 554.3 642.8 551.7C685.7 549 728.3 550 771.2 548.3C814 546.7 857 542.3 878.5 540.2L900 538L900 601L878.5 601C857 601 814 601 771.2 601C728.3 601 685.7 601 642.8 601C600 601 557 601 514.2 601C471.3 601 428.7 601 385.8 601C343 601 300 601 257.2 601C214.3 601 171.7 601 128.8 601C86 601 43 601 21.5 601L0 601Z" fill="#c62368"></path></svg>